# xmcd
#
# Track frame offsets: 
#        182
#        28047
#        54642
#        83835
#        109740
#        134152
#        159617
#        186817
#        208405
#        231242
#        257270
#
# Disc length: 3764 seconds
#
# Revision: 4
# Processed by: cddbd v1.5.2PL0 Copyright (c) Steve Scherf et al.
# Submitted via: ExactAudioCopy v1.0b3
#
DISCID=9c0eb20b
DTITLE=Angela Winbush - Angela Winbush
DYEAR=1994
DGENRE=Soul
TTITLE0=Treat U Rite
TTITLE1=Inner City Blues
TTITLE2=Keep Turnin' Me On
TTITLE3=Too Good To Let You Go
TTITLE4=Baby Hold On
TTITLE5=You're My Everything
TTITLE6=Dream Lover
TTITLE7=Hot Summer Love
TTITLE8=Sensitive Heart
TTITLE9=I'm The Kind Of Woman
TTITLE10=Inner City Blues (Radio Version)
EXTD=YEAR: 1994
EXTT0=
EXTT1=
EXTT2=
EXTT3=
EXTT4=duet with Ronald Isley
EXTT5=
EXTT6=
EXTT7=
EXTT8=
EXTT9=
EXTT10=
PLAYORDER=
